<svg width="46" height="46" viewBox="0 0 46 46" fill="none" xmlns="http://www.w3.org/2000/svg">
<path d="M20.2871 2.5038C21.8193 1.08971 24.1807 1.08971 25.7129 2.5038L26.8581 3.56074C27.7752 4.40719 29.0349 4.77705 30.264 4.56082L31.7989 4.2908C33.8523 3.92955 35.8389 5.20623 36.3633 7.2242L36.7553 8.7325C37.0692 9.94041 37.9289 10.9326 39.0799 11.4152L40.517 12.0178C42.4398 12.8241 43.4208 14.9721 42.771 16.9533L42.2853 18.4341C41.8963 19.62 42.0831 20.9194 42.7905 21.9477L43.6737 23.2316C44.8553 24.9495 44.5192 27.2868 42.9015 28.6022L41.6923 29.5853C40.724 30.3726 40.1786 31.5668 40.2177 32.8143L40.2666 34.3719C40.3319 36.4559 38.7855 38.2405 36.7134 38.4724L35.1647 38.6458C33.9244 38.7846 32.82 39.4943 32.1785 40.5649L31.3774 41.9017C30.3057 43.6901 28.04 44.3554 26.1715 43.4303L24.7749 42.7388C23.6564 42.185 22.3436 42.185 21.2251 42.7388L19.8285 43.4303C17.96 44.3554 15.6943 43.6901 14.6226 41.9016L13.8215 40.5649C13.18 39.4943 12.0756 38.7846 10.8353 38.6458L9.28657 38.4724C7.21451 38.2405 5.66811 36.4559 5.73344 34.3719L5.78228 32.8143C5.82139 31.5668 5.27602 30.3726 4.30767 29.5853L3.09851 28.6022C1.48076 27.2868 1.14469 24.9495 2.32634 23.2316L3.20954 21.9477C3.91685 20.9194 4.10369 19.62 3.71472 18.4341L3.22903 16.9533C2.57922 14.9721 3.56018 12.8241 5.48298 12.0178L6.92014 11.4152C8.07108 10.9326 8.9308 9.94041 9.24471 8.7325L9.63669 7.2242C10.1611 5.20623 12.1477 3.92955 14.2011 4.2908L15.736 4.56082C16.9651 4.77705 18.2248 4.40719 19.1419 3.56074L20.2871 2.5038Z" fill="#FBD5D2"/>
<path d="M17.411 18.9737V27H15.9453L12.4534 21.9483H12.3946V27H10.6976V18.9737H12.1869L15.6514 24.0215H15.7219V18.9737H17.411ZM18.8131 27V18.9737H24.2215V20.3728H20.5101V22.2853H23.9432V23.6844H20.5101V25.6009H24.2372V27H18.8131ZM27.3774 27L25.0808 18.9737H26.9345L28.2631 24.5506H28.3297L29.7954 18.9737H31.3827L32.8445 24.5623H32.9151L34.2436 18.9737H36.0974L33.8008 27H32.1469L30.6185 21.7523H30.5558L29.0312 27H27.3774Z" fill="#F47971"/>
</svg>
